<?xml version="1.0" encoding="utf-8"?>
<svg xmlns="http://www.w3.org/2000/svg" height="128" width="128" viewBox="0 0 128 128">
  <g>
    <rect height="128" width="128" fill="#6A2D2D" />
    <path id="path1" transform="rotate(0,64,64) translate(30,37.712660771007) scale(2.12500189989975,2.12500189989975)  " fill="#FFFFFF" d="M0.90645184,4.5840894C0.10842934,12.159234 4.7923787,18.836368 11.569253,19.63338 15.655189,20.131391 19.442119,18.338357 22.133117,15.148292L19.044175,12.757246 31.999971,7.5741459 30.006959,21.427413 27.017015,19.135369C23.8281,23.022447 18.745168,25.31449 13.363232,24.616479 5.0913857,23.620458 -0.88752714,16.045312 0.10842934,7.6741463 0.3084385,6.6771251 0.60744514,5.5811029 0.90645184,4.5840894z M3.7963613,1.595025L13.16426,10.963212C13.463267,11.262221,13.961245,11.262221,14.260252,10.963212L23.628089,1.595025C23.927097,1.794034,24.02707,1.9930354,24.02707,2.292045L24.02707,9.268179 16.05417,12.458244 19.442119,15.049291 5.3903311,15.049291C4.6933812,14.351278,3.9953941,13.554266,3.4974156,12.757246L3.4974156,2.292045C3.4974156,1.9930354,3.5964132,1.6940336,3.7963613,1.595025z M4.8923529,0L22.632072,0C22.632072,0.19900158,22.532098,0.29900201,22.432124,0.49801113L14.260252,8.670168C13.961245,8.9691697,13.562265,8.9691697,13.264235,8.670168L5.0913857,0.49801113C4.9923881,0.39900245,4.8923529,0.19900158,4.8923529,0z" />
  </g>
</svg>

